<?xml version="1.0" standalone="no"?>
<!DOCTYPE svg PUBLIC "-//W3C//DTD SVG 20010904//EN"
 "http://www.w3.org/TR/2001/REC-SVG-20010904/DTD/svg10.dtd">
<svg version="1.0" xmlns="http://www.w3.org/2000/svg"
 width="200.000000pt" height="200.000000pt" viewBox="0 0 200.000000 200.000000"
 preserveAspectRatio="xMidYMid meet">
<metadata>
Created by potrace 1.14, written by Peter Selinger 2001-2017
</metadata>
<g transform="translate(0.000000,200.000000) scale(0.100000,-0.100000)"
fill="#000000" stroke="none">
<path d="M1020 1852 c-110 -16 -340 -87 -435 -135 -180 -90 -299 -207 -374
-369 -63 -134 -85 -238 -85 -403 0 -273 70 -466 223 -615 90 -87 176 -137 306
-176 77 -22 112 -27 240 -30 128 -3 166 0 261 20 233 50 393 145 518 309 105
138 184 332 204 500 46 382 -162 738 -423 725 -54 -3 -60 -5 -63 -27 -5 -31 5
-39 57 -45 171 -20 271 -124 326 -340 20 -78 23 -111 21 -231 -2 -77 -6 -149
-9 -160 -21 -83 -31 -113 -58 -177 -80 -187 -222 -339 -404 -430 -54 -27 -165
-67 -205 -74 -14 -3 -31 -7 -38 -9 -28 -10 -142 -19 -229 -18 -150 2 -320 54
-422 129 -179 133 -284 389 -275 674 14 445 248 699 764 832 177 45 337 45
430 -1 l25 -12 -25 20 c-53 42 -203 62 -330 43z"/>
<path d="M1219 1406 c-2 -2 -67 -7 -144 -11 -77 -3 -162 -8 -190 -11 -51 -4
-254 -14 -357 -18 -32 -1 -63 -7 -68 -12 -15 -15 -16 -182 -1 -197 16 -16 23
-3 27 50 2 26 6 63 9 80 l6 33 92 -5 c207 -11 302 -17 308 -21 3 -2 2 -25 -2
-51 -8 -44 -4 -410 6 -543 2 -30 6 -95 10 -145 3 -52 12 -99 21 -112 14 -22
13 -23 -13 -23 -16 0 -35 -5 -43 -10 -16 -10 -7 -11 123 -13 71 -1 106 15 77
33 -8 6 -27 8 -41 6 -23 -3 -26 0 -26 28 1 28 -4 85 -18 219 -9 86 -15 165
-20 262 -9 155 -14 235 -21 296 l-6 57 33 -3 c19 -2 105 -4 191 -4 l158 -1 6
-27 c20 -80 83 -111 108 -52 14 34 12 109 -4 140 -21 38 -60 53 -140 56 -43 1
-79 1 -81 -1z"/>
</g>
</svg>
